name rise36.2859peak64.2979fall75.1499.mot
datacolumns 19
datarows 24
range 11.41829000000000 11.45662200000000
endheader
time	ground_force1_vx	ground_force1_vy	ground_force1_vz	ground_force1_px	ground_force1_py	ground_force1_pz	ground_force2_vx	ground_force2_vy	ground_force2_vz	ground_force2_px	ground_force2_py	ground_force2_pz	ground_torque1_x	ground_torque1_y	ground_torque1_z	ground_torque2_x	ground_torque2_y	ground_torque2_z	
11.41829000000000	66.68144800000000	759.11970199999996	54.65631500000000	0.41683900000000	0.00000000000000	0.09522300000000	0.00000000000000	0.00000000000000	0.00000000000000	0.00000000000000	0.00000000000000	0.00000000000000	0.00000000000000	31.73220100000000	0.00000000000000	0.00000000000000	0.00000000000000	0.00000000000000	
11.41996300000000	66.30995299999999	762.40446699999995	54.88762000000000	0.41604400000000	0.00000000000000	0.09520100000000	0.00000000000000	0.00000000000000	0.00000000000000	0.00000000000000	0.00000000000000	0.00000000000000	0.00000000000000	31.87434400000000	0.00000000000000	0.00000000000000	0.00000000000000	0.00000000000000	
11.42163100000000	65.92712200000000	765.54420200000004	55.11985100000000	0.41525700000000	0.00000000000000	0.09518000000000	0.00000000000000	0.00000000000000	0.00000000000000	0.00000000000000	0.00000000000000	0.00000000000000	0.00000000000000	32.02058800000000	0.00000000000000	0.00000000000000	0.00000000000000	0.00000000000000	
11.42329400000000	65.53326400000000	768.53699099999994	55.35256700000000	0.41447700000000	0.00000000000000	0.09515900000000	0.00000000000000	0.00000000000000	0.00000000000000	0.00000000000000	0.00000000000000	0.00000000000000	0.00000000000000	32.17059300000000	0.00000000000000	0.00000000000000	0.00000000000000	0.00000000000000	
11.42496700000000	65.12866400000000	771.38107300000001	55.58525000000000	0.41370500000000	0.00000000000000	0.09513900000000	0.00000000000000	0.00000000000000	0.00000000000000	0.00000000000000	0.00000000000000	0.00000000000000	0.00000000000000	32.32395400000000	0.00000000000000	0.00000000000000	0.00000000000000	0.00000000000000	
11.42662300000000	64.71358499999999	774.07486200000005	55.81731300000000	0.41293900000000	0.00000000000000	0.09511900000000	0.00000000000000	0.00000000000000	0.00000000000000	0.00000000000000	0.00000000000000	0.00000000000000	0.00000000000000	32.48020400000000	0.00000000000000	0.00000000000000	0.00000000000000	0.00000000000000	
11.42828900000000	64.28827099999999	776.61694899999998	56.04810500000000	0.41218000000000	0.00000000000000	0.09509900000000	0.00000000000000	0.00000000000000	0.00000000000000	0.00000000000000	0.00000000000000	0.00000000000000	0.00000000000000	32.63882300000000	0.00000000000000	0.00000000000000	0.00000000000000	0.00000000000000	
11.42995300000000	63.85294900000000	779.00612100000001	56.27692100000000	0.41142700000000	0.00000000000000	0.09508000000000	0.00000000000000	0.00000000000000	0.00000000000000	0.00000000000000	0.00000000000000	0.00000000000000	0.00000000000000	32.79924100000000	0.00000000000000	0.00000000000000	0.00000000000000	0.00000000000000	
11.43162600000000	63.40783000000000	781.24136599999997	56.50300200000000	0.41068000000000	0.00000000000000	0.09506100000000	0.00000000000000	0.00000000000000	0.00000000000000	0.00000000000000	0.00000000000000	0.00000000000000	0.00000000000000	32.96084500000000	0.00000000000000	0.00000000000000	0.00000000000000	0.00000000000000	
11.43329100000000	62.95311300000000	783.32188199999996	56.72555300000000	0.40993700000000	0.00000000000000	0.09504300000000	0.00000000000000	0.00000000000000	0.00000000000000	0.00000000000000	0.00000000000000	0.00000000000000	0.00000000000000	33.12298200000000	0.00000000000000	0.00000000000000	0.00000000000000	0.00000000000000	
11.43496200000000	62.48899000000000	785.24708799999996	56.94374100000000	0.40919800000000	0.00000000000000	0.09502400000000	0.00000000000000	0.00000000000000	0.00000000000000	0.00000000000000	0.00000000000000	0.00000000000000	0.00000000000000	33.28496800000000	0.00000000000000	0.00000000000000	0.00000000000000	0.00000000000000	
11.43662700000000	62.01564400000000	787.01662899999997	57.15670900000000	0.40846200000000	0.00000000000000	0.09500600000000	0.00000000000000	0.00000000000000	0.00000000000000	0.00000000000000	0.00000000000000	0.00000000000000	0.00000000000000	33.44609100000000	0.00000000000000	0.00000000000000	0.00000000000000	0.00000000000000	
11.43829400000000	61.53325300000000	788.63038300000005	57.36358000000000	0.40772900000000	0.00000000000000	0.09498800000000	0.00000000000000	0.00000000000000	0.00000000000000	0.00000000000000	0.00000000000000	0.00000000000000	0.00000000000000	33.60562100000000	0.00000000000000	0.00000000000000	0.00000000000000	0.00000000000000	
11.43996100000000	61.04199400000000	790.08846800000003	57.56346500000000	0.40699800000000	0.00000000000000	0.09497000000000	0.00000000000000	0.00000000000000	0.00000000000000	0.00000000000000	0.00000000000000	0.00000000000000	0.00000000000000	33.76281000000000	0.00000000000000	0.00000000000000	0.00000000000000	0.00000000000000	
11.44162500000000	60.54204300000000	791.39124400000003	57.75547600000000	0.40626800000000	0.00000000000000	0.09495200000000	0.00000000000000	0.00000000000000	0.00000000000000	0.00000000000000	0.00000000000000	0.00000000000000	0.00000000000000	33.91690500000000	0.00000000000000	0.00000000000000	0.00000000000000	0.00000000000000	
11.44329100000000	60.03358000000000	792.53931799999998	57.93872400000000	0.40553700000000	0.00000000000000	0.09493400000000	0.00000000000000	0.00000000000000	0.00000000000000	0.00000000000000	0.00000000000000	0.00000000000000	0.00000000000000	34.06714700000000	0.00000000000000	0.00000000000000	0.00000000000000	0.00000000000000	
11.44495800000000	59.51679000000000	793.53354600000000	58.11233500000000	0.40480600000000	0.00000000000000	0.09491600000000	0.00000000000000	0.00000000000000	0.00000000000000	0.00000000000000	0.00000000000000	0.00000000000000	0.00000000000000	34.21278100000000	0.00000000000000	0.00000000000000	0.00000000000000	0.00000000000000	
11.44662300000000	58.99186100000000	794.37503600000002	58.27545200000000	0.40407300000000	0.00000000000000	0.09489700000000	0.00000000000000	0.00000000000000	0.00000000000000	0.00000000000000	0.00000000000000	0.00000000000000	0.00000000000000	34.35306100000000	0.00000000000000	0.00000000000000	0.00000000000000	0.00000000000000	
11.44828900000000	58.45899500000000	795.06514500000003	58.42724400000000	0.40333800000000	0.00000000000000	0.09487900000000	0.00000000000000	0.00000000000000	0.00000000000000	0.00000000000000	0.00000000000000	0.00000000000000	0.00000000000000	34.48725300000000	0.00000000000000	0.00000000000000	0.00000000000000	0.00000000000000	
11.44996100000000	57.91840000000000	795.60548100000005	58.56691200000000	0.40259900000000	0.00000000000000	0.09486000000000	0.00000000000000	0.00000000000000	0.00000000000000	0.00000000000000	0.00000000000000	0.00000000000000	0.00000000000000	34.61464400000000	0.00000000000000	0.00000000000000	0.00000000000000	0.00000000000000	
11.45161900000000	57.37029800000000	795.99789999999996	58.69369500000000	0.40185500000000	0.00000000000000	0.09484100000000	0.00000000000000	0.00000000000000	0.00000000000000	0.00000000000000	0.00000000000000	0.00000000000000	0.00000000000000	34.73454300000000	0.00000000000000	0.00000000000000	0.00000000000000	0.00000000000000	
11.45328800000000	56.81492300000000	796.24450400000001	58.80687400000000	0.40110600000000	0.00000000000000	0.09482200000000	0.00000000000000	0.00000000000000	0.00000000000000	0.00000000000000	0.00000000000000	0.00000000000000	0.00000000000000	34.84628600000000	0.00000000000000	0.00000000000000	0.00000000000000	0.00000000000000	
11.45495300000000	56.25252600000000	796.34763499999997	58.90578200000000	0.40035000000000	0.00000000000000	0.09480200000000	0.00000000000000	0.00000000000000	0.00000000000000	0.00000000000000	0.00000000000000	0.00000000000000	0.00000000000000	34.94924600000000	0.00000000000000	0.00000000000000	0.00000000000000	0.00000000000000	
11.45662200000000	55.68337200000000	796.30987400000004	58.98980300000000	0.39958700000000	0.00000000000000	0.09478200000000	0.00000000000000	0.00000000000000	0.00000000000000	0.00000000000000	0.00000000000000	0.00000000000000	0.00000000000000	35.04282800000000	0.00000000000000	0.00000000000000	0.00000000000000	0.00000000000000	
